<svg id="visual" viewBox="0 0 900 600" width="900" height="600" xmlns="http://www.w3.org/2000/svg" xmlns:xlink="http://www.w3.org/1999/xlink" version="1.1"><g transform="translate(564.5730244066501 319.43588040361584)"><path d="M172.9 -225.8C215.7 -206.9 236.2 -145.2 237.2 -89.5C238.1 -33.9 219.4 15.7 196.3 56.7C173.2 97.7 145.7 130.1 112.2 166.8C78.8 203.4 39.4 244.2 -1 245.6C-41.3 246.9 -82.7 208.8 -165.9 188.3C-249.1 167.9 -374.2 165.1 -429.8 111.8C-485.4 58.6 -471.4 -45 -429.2 -128.5C-387.1 -212.1 -316.7 -275.5 -240.4 -283.6C-164.2 -291.6 -82.1 -244.2 -8.5 -232.5C65 -220.8 130.1 -244.7 172.9 -225.8" fill="#6da548"></path></g></svg>